<svg width="1053" height="721" viewBox="0 0 1053 721" fill="none" xmlns="http://www.w3.org/2000/svg">
<g filter="url(#filter0_d_735_4738)">
<rect x="150.182" y="111" width="749" height="476" rx="10" fill="#EDEDED"/>
</g>
<line x1="250.682" y1="163" x2="250.682" y2="536" stroke="#C9C9C9"/>
<line x1="388.682" y1="163" x2="388.682" y2="536" stroke="#C9C9C9"/>
<line x1="526.682" y1="163" x2="526.682" y2="536" stroke="#C9C9C9"/>
<line x1="663.682" y1="163" x2="663.682" y2="536" stroke="#C9C9C9"/>
<line x1="800.682" y1="163" x2="800.682" y2="536" stroke="#C9C9C9"/>
<mask id="mask0_735_4738" style="mask-type:alpha" maskUnits="userSpaceOnUse" x="53" y="217" width="911" height="372">
<path d="M844.614 440.356C891.218 453.73 924.754 486.42 963.683 498.5L963.683 588.5L53.6833 588.5L53.6833 218.051C98.0396 224.62 107.226 222.7 129.244 218.061C151.262 213.422 175.247 244.583 199.183 251C223.12 257.417 252.41 214.374 302.683 229C352.957 243.626 381.477 329.17 427.453 300.789C473.43 272.409 479.428 291.865 523.955 291.277C568.483 290.69 575.066 377.695 616.654 381.104C658.241 384.514 658.867 456.161 701.863 455.891C753.964 455.565 750.183 450.5 774.343 443.646C798.503 436.792 819.775 433.228 844.614 440.356Z" fill="url(#paint0_linear_735_4738)"/>
</mask>
<g mask="url(#mask0_735_4738)">
<rect x="150.691" y="224.446" width="747.614" height="332.699" transform="rotate(-0.31788 150.691 224.446)" fill="url(#paint1_linear_735_4738)"/>
</g>
<path d="M1061 521C977.001 513 890.47 453.928 843.908 440.546C819.091 433.414 797.833 436.995 773.689 443.875C749.544 450.754 753.319 455.828 701.257 456.179C658.294 456.468 657.701 384.666 616.146 381.267C574.592 377.869 568.052 290.678 523.558 291.286C479.064 291.894 473.079 272.399 427.124 300.862C381.17 329.324 355.347 243.293 305.118 228.657C254.889 214.021 224.598 257.972 200.683 251.551C176.767 245.131 147.186 213.892 125.183 218.551C103.179 223.21 96.0027 225.114 51.6828 218.551" stroke="#E7B65F" stroke-width="5" stroke-linecap="round" stroke-linejoin="round"/>
<rect x="104" y="453" width="128" height="65" rx="32.5" fill="#15749D"/>
<path d="M167.808 495.808C168.512 495.744 169.131 495.595 169.664 495.36C170.197 495.115 170.645 494.805 171.008 494.432C171.381 494.059 171.659 493.627 171.84 493.136C172.032 492.635 172.128 492.085 172.128 491.488C172.128 490.955 172.027 490.496 171.824 490.112C171.632 489.728 171.365 489.397 171.024 489.12C170.683 488.832 170.283 488.592 169.824 488.4C169.365 488.197 168.875 488.011 168.352 487.84L167.808 495.808ZM167.28 477.312C166.587 477.376 165.984 477.515 165.472 477.728C164.971 477.941 164.555 478.208 164.224 478.528C163.893 478.848 163.648 479.211 163.488 479.616C163.328 480.011 163.248 480.427 163.248 480.864C163.248 481.376 163.339 481.824 163.52 482.208C163.701 482.581 163.952 482.912 164.272 483.2C164.592 483.488 164.965 483.739 165.392 483.952C165.819 484.165 166.283 484.357 166.784 484.528L167.28 477.312ZM168.544 485.088C169.312 485.333 170.069 485.595 170.816 485.872C171.563 486.149 172.235 486.507 172.832 486.944C173.429 487.381 173.909 487.931 174.272 488.592C174.645 489.243 174.832 490.059 174.832 491.04C174.832 492 174.672 492.901 174.352 493.744C174.032 494.587 173.563 495.328 172.944 495.968C172.336 496.608 171.584 497.131 170.688 497.536C169.803 497.931 168.789 498.165 167.648 498.24L167.456 501.04C167.445 501.243 167.365 501.419 167.216 501.568C167.067 501.728 166.88 501.808 166.656 501.808H165.6L165.84 498.208C164.549 498.08 163.371 497.76 162.304 497.248C161.248 496.725 160.336 496.064 159.568 495.264L160.432 493.952C160.517 493.835 160.624 493.739 160.752 493.664C160.88 493.589 161.019 493.552 161.168 493.552C161.371 493.552 161.6 493.653 161.856 493.856C162.112 494.059 162.427 494.288 162.8 494.544C163.184 494.8 163.632 495.051 164.144 495.296C164.667 495.541 165.291 495.707 166.016 495.792L166.592 487.296C165.845 487.072 165.109 486.821 164.384 486.544C163.669 486.267 163.024 485.899 162.448 485.44C161.883 484.981 161.424 484.411 161.072 483.728C160.731 483.045 160.56 482.187 160.56 481.152C160.56 480.373 160.709 479.616 161.008 478.88C161.317 478.133 161.765 477.472 162.352 476.896C162.939 476.32 163.659 475.851 164.512 475.488C165.365 475.115 166.341 474.907 167.44 474.864L167.6 472.56C167.611 472.357 167.685 472.176 167.824 472.016C167.973 471.856 168.165 471.776 168.4 471.776H169.456L169.248 474.928C170.357 475.067 171.317 475.355 172.128 475.792C172.949 476.229 173.675 476.763 174.304 477.392L173.616 478.448C173.403 478.768 173.157 478.928 172.88 478.928C172.731 478.928 172.544 478.864 172.32 478.736C172.107 478.597 171.845 478.437 171.536 478.256C171.237 478.075 170.88 477.899 170.464 477.728C170.059 477.557 169.595 477.429 169.072 477.344L168.544 485.088ZM186.371 495.808C187.075 495.744 187.693 495.595 188.227 495.36C188.76 495.115 189.208 494.805 189.571 494.432C189.944 494.059 190.221 493.627 190.403 493.136C190.595 492.635 190.691 492.085 190.691 491.488C190.691 490.955 190.589 490.496 190.387 490.112C190.195 489.728 189.928 489.397 189.587 489.12C189.245 488.832 188.845 488.592 188.387 488.4C187.928 488.197 187.437 488.011 186.915 487.84L186.371 495.808ZM185.843 477.312C185.149 477.376 184.547 477.515 184.035 477.728C183.533 477.941 183.117 478.208 182.787 478.528C182.456 478.848 182.211 479.211 182.051 479.616C181.891 480.011 181.811 480.427 181.811 480.864C181.811 481.376 181.901 481.824 182.083 482.208C182.264 482.581 182.515 482.912 182.835 483.2C183.155 483.488 183.528 483.739 183.955 483.952C184.381 484.165 184.845 484.357 185.347 484.528L185.843 477.312ZM187.107 485.088C187.875 485.333 188.632 485.595 189.379 485.872C190.125 486.149 190.797 486.507 191.395 486.944C191.992 487.381 192.472 487.931 192.835 488.592C193.208 489.243 193.395 490.059 193.395 491.04C193.395 492 193.235 492.901 192.915 493.744C192.595 494.587 192.125 495.328 191.507 495.968C190.899 496.608 190.147 497.131 189.251 497.536C188.365 497.931 187.352 498.165 186.211 498.24L186.019 501.04C186.008 501.243 185.928 501.419 185.779 501.568C185.629 501.728 185.443 501.808 185.219 501.808H184.163L184.403 498.208C183.112 498.08 181.933 497.76 180.867 497.248C179.811 496.725 178.899 496.064 178.131 495.264L178.995 493.952C179.08 493.835 179.187 493.739 179.315 493.664C179.443 493.589 179.581 493.552 179.731 493.552C179.933 493.552 180.163 493.653 180.419 493.856C180.675 494.059 180.989 494.288 181.363 494.544C181.747 494.8 182.195 495.051 182.707 495.296C183.229 495.541 183.853 495.707 184.579 495.792L185.155 487.296C184.408 487.072 183.672 486.821 182.947 486.544C182.232 486.267 181.587 485.899 181.011 485.44C180.445 484.981 179.987 484.411 179.635 483.728C179.293 483.045 179.123 482.187 179.123 481.152C179.123 480.373 179.272 479.616 179.571 478.88C179.88 478.133 180.328 477.472 180.915 476.896C181.501 476.32 182.221 475.851 183.075 475.488C183.928 475.115 184.904 474.907 186.003 474.864L186.163 472.56C186.173 472.357 186.248 472.176 186.387 472.016C186.536 471.856 186.728 471.776 186.963 471.776H188.019L187.811 474.928C188.92 475.067 189.88 475.355 190.691 475.792C191.512 476.229 192.237 476.763 192.867 477.392L192.179 478.448C191.965 478.768 191.72 478.928 191.443 478.928C191.293 478.928 191.107 478.864 190.883 478.736C190.669 478.597 190.408 478.437 190.099 478.256C189.8 478.075 189.443 477.899 189.027 477.728C188.621 477.557 188.157 477.429 187.635 477.344L187.107 485.088Z" fill="white"/>
<path d="M142 487.2H149.904V489.616H142V487.2Z" fill="white"/>
<rect x="652" y="198" width="141" height="65" rx="32.5" fill="#15749D"/>
<path d="M713.808 240.808C714.512 240.744 715.131 240.595 715.664 240.36C716.197 240.115 716.645 239.805 717.008 239.432C717.381 239.059 717.659 238.627 717.84 238.136C718.032 237.635 718.128 237.085 718.128 236.488C718.128 235.955 718.027 235.496 717.824 235.112C717.632 234.728 717.365 234.397 717.024 234.12C716.683 233.832 716.283 233.592 715.824 233.4C715.365 233.197 714.875 233.011 714.352 232.84L713.808 240.808ZM713.28 222.312C712.587 222.376 711.984 222.515 711.472 222.728C710.971 222.941 710.555 223.208 710.224 223.528C709.893 223.848 709.648 224.211 709.488 224.616C709.328 225.011 709.248 225.427 709.248 225.864C709.248 226.376 709.339 226.824 709.52 227.208C709.701 227.581 709.952 227.912 710.272 228.2C710.592 228.488 710.965 228.739 711.392 228.952C711.819 229.165 712.283 229.357 712.784 229.528L713.28 222.312ZM714.544 230.088C715.312 230.333 716.069 230.595 716.816 230.872C717.563 231.149 718.235 231.507 718.832 231.944C719.429 232.381 719.909 232.931 720.272 233.592C720.645 234.243 720.832 235.059 720.832 236.04C720.832 237 720.672 237.901 720.352 238.744C720.032 239.587 719.563 240.328 718.944 240.968C718.336 241.608 717.584 242.131 716.688 242.536C715.803 242.931 714.789 243.165 713.648 243.24L713.456 246.04C713.445 246.243 713.365 246.419 713.216 246.568C713.067 246.728 712.88 246.808 712.656 246.808H711.6L711.84 243.208C710.549 243.08 709.371 242.76 708.304 242.248C707.248 241.725 706.336 241.064 705.568 240.264L706.432 238.952C706.517 238.835 706.624 238.739 706.752 238.664C706.88 238.589 707.019 238.552 707.168 238.552C707.371 238.552 707.6 238.653 707.856 238.856C708.112 239.059 708.427 239.288 708.8 239.544C709.184 239.8 709.632 240.051 710.144 240.296C710.667 240.541 711.291 240.707 712.016 240.792L712.592 232.296C711.845 232.072 711.109 231.821 710.384 231.544C709.669 231.267 709.024 230.899 708.448 230.44C707.883 229.981 707.424 229.411 707.072 228.728C706.731 228.045 706.56 227.187 706.56 226.152C706.56 225.373 706.709 224.616 707.008 223.88C707.317 223.133 707.765 222.472 708.352 221.896C708.939 221.32 709.659 220.851 710.512 220.488C711.365 220.115 712.341 219.907 713.44 219.864L713.6 217.56C713.611 217.357 713.685 217.176 713.824 217.016C713.973 216.856 714.165 216.776 714.4 216.776H715.456L715.248 219.928C716.357 220.067 717.317 220.355 718.128 220.792C718.949 221.229 719.675 221.763 720.304 222.392L719.616 223.448C719.403 223.768 719.157 223.928 718.88 223.928C718.731 223.928 718.544 223.864 718.32 223.736C718.107 223.597 717.845 223.437 717.536 223.256C717.237 223.075 716.88 222.899 716.464 222.728C716.059 222.557 715.595 222.429 715.072 222.344L714.544 230.088ZM732.371 240.808C733.075 240.744 733.693 240.595 734.227 240.36C734.76 240.115 735.208 239.805 735.571 239.432C735.944 239.059 736.221 238.627 736.403 238.136C736.595 237.635 736.691 237.085 736.691 236.488C736.691 235.955 736.589 235.496 736.387 235.112C736.195 234.728 735.928 234.397 735.587 234.12C735.245 233.832 734.845 233.592 734.387 233.4C733.928 233.197 733.437 233.011 732.915 232.84L732.371 240.808ZM731.843 222.312C731.149 222.376 730.547 222.515 730.035 222.728C729.533 222.941 729.117 223.208 728.787 223.528C728.456 223.848 728.211 224.211 728.051 224.616C727.891 225.011 727.811 225.427 727.811 225.864C727.811 226.376 727.901 226.824 728.083 227.208C728.264 227.581 728.515 227.912 728.835 228.2C729.155 228.488 729.528 228.739 729.955 228.952C730.381 229.165 730.845 229.357 731.347 229.528L731.843 222.312ZM733.107 230.088C733.875 230.333 734.632 230.595 735.379 230.872C736.125 231.149 736.797 231.507 737.395 231.944C737.992 232.381 738.472 232.931 738.835 233.592C739.208 234.243 739.395 235.059 739.395 236.04C739.395 237 739.235 237.901 738.915 238.744C738.595 239.587 738.125 240.328 737.507 240.968C736.899 241.608 736.147 242.131 735.251 242.536C734.365 242.931 733.352 243.165 732.211 243.24L732.019 246.04C732.008 246.243 731.928 246.419 731.779 246.568C731.629 246.728 731.443 246.808 731.219 246.808H730.163L730.403 243.208C729.112 243.08 727.933 242.76 726.867 242.248C725.811 241.725 724.899 241.064 724.131 240.264L724.995 238.952C725.08 238.835 725.187 238.739 725.315 238.664C725.443 238.589 725.581 238.552 725.731 238.552C725.933 238.552 726.163 238.653 726.419 238.856C726.675 239.059 726.989 239.288 727.363 239.544C727.747 239.8 728.195 240.051 728.707 240.296C729.229 240.541 729.853 240.707 730.579 240.792L731.155 232.296C730.408 232.072 729.672 231.821 728.947 231.544C728.232 231.267 727.587 230.899 727.011 230.44C726.445 229.981 725.987 229.411 725.635 228.728C725.293 228.045 725.123 227.187 725.123 226.152C725.123 225.373 725.272 224.616 725.571 223.88C725.88 223.133 726.328 222.472 726.915 221.896C727.501 221.32 728.221 220.851 729.075 220.488C729.928 220.115 730.904 219.907 732.003 219.864L732.163 217.56C732.173 217.357 732.248 217.176 732.387 217.016C732.536 216.856 732.728 216.776 732.963 216.776H734.019L733.811 219.928C734.92 220.067 735.88 220.355 736.691 220.792C737.512 221.229 738.237 221.763 738.867 222.392L738.179 223.448C737.965 223.768 737.72 223.928 737.443 223.928C737.293 223.928 737.107 223.864 736.883 223.736C736.669 223.597 736.408 223.437 736.099 223.256C735.8 223.075 735.443 222.899 735.027 222.728C734.621 222.557 734.157 222.429 733.635 222.344L733.107 230.088ZM750.933 240.808C751.637 240.744 752.256 240.595 752.789 240.36C753.322 240.115 753.77 239.805 754.133 239.432C754.506 239.059 754.784 238.627 754.965 238.136C755.157 237.635 755.253 237.085 755.253 236.488C755.253 235.955 755.152 235.496 754.949 235.112C754.757 234.728 754.49 234.397 754.149 234.12C753.808 233.832 753.408 233.592 752.949 233.4C752.49 233.197 752 233.011 751.477 232.84L750.933 240.808ZM750.405 222.312C749.712 222.376 749.109 222.515 748.597 222.728C748.096 222.941 747.68 223.208 747.349 223.528C747.018 223.848 746.773 224.211 746.613 224.616C746.453 225.011 746.373 225.427 746.373 225.864C746.373 226.376 746.464 226.824 746.645 227.208C746.826 227.581 747.077 227.912 747.397 228.2C747.717 228.488 748.09 228.739 748.517 228.952C748.944 229.165 749.408 229.357 749.909 229.528L750.405 222.312ZM751.669 230.088C752.437 230.333 753.194 230.595 753.941 230.872C754.688 231.149 755.36 231.507 755.957 231.944C756.554 232.381 757.034 232.931 757.397 233.592C757.77 234.243 757.957 235.059 757.957 236.04C757.957 237 757.797 237.901 757.477 238.744C757.157 239.587 756.688 240.328 756.069 240.968C755.461 241.608 754.709 242.131 753.813 242.536C752.928 242.931 751.914 243.165 750.773 243.24L750.581 246.04C750.57 246.243 750.49 246.419 750.341 246.568C750.192 246.728 750.005 246.808 749.781 246.808H748.725L748.965 243.208C747.674 243.08 746.496 242.76 745.429 242.248C744.373 241.725 743.461 241.064 742.693 240.264L743.557 238.952C743.642 238.835 743.749 238.739 743.877 238.664C744.005 238.589 744.144 238.552 744.293 238.552C744.496 238.552 744.725 238.653 744.981 238.856C745.237 239.059 745.552 239.288 745.925 239.544C746.309 239.8 746.757 240.051 747.269 240.296C747.792 240.541 748.416 240.707 749.141 240.792L749.717 232.296C748.97 232.072 748.234 231.821 747.509 231.544C746.794 231.267 746.149 230.899 745.573 230.44C745.008 229.981 744.549 229.411 744.197 228.728C743.856 228.045 743.685 227.187 743.685 226.152C743.685 225.373 743.834 224.616 744.133 223.88C744.442 223.133 744.89 222.472 745.477 221.896C746.064 221.32 746.784 220.851 747.637 220.488C748.49 220.115 749.466 219.907 750.565 219.864L750.725 217.56C750.736 217.357 750.81 217.176 750.949 217.016C751.098 216.856 751.29 216.776 751.525 216.776H752.581L752.373 219.928C753.482 220.067 754.442 220.355 755.253 220.792C756.074 221.229 756.8 221.763 757.429 222.392L756.741 223.448C756.528 223.768 756.282 223.928 756.005 223.928C755.856 223.928 755.669 223.864 755.445 223.736C755.232 223.597 754.97 223.437 754.661 223.256C754.362 223.075 754.005 222.899 753.589 222.728C753.184 222.557 752.72 222.429 752.197 222.344L751.669 230.088Z" fill="white"/>
<path d="M688 232.2H695.904V234.616H688V232.2Z" fill="white"/>
<rect x="423" width="117" height="65" rx="32.5" fill="#D2E9F3"/>
<path d="M481.808 42.808C482.512 42.744 483.131 42.5947 483.664 42.36C484.197 42.1147 484.645 41.8053 485.008 41.432C485.381 41.0587 485.659 40.6267 485.84 40.136C486.032 39.6347 486.128 39.0853 486.128 38.488C486.128 37.9547 486.027 37.496 485.824 37.112C485.632 36.728 485.365 36.3973 485.024 36.12C484.683 35.832 484.283 35.592 483.824 35.4C483.365 35.1973 482.875 35.0107 482.352 34.84L481.808 42.808ZM481.28 24.312C480.587 24.376 479.984 24.5147 479.472 24.728C478.971 24.9413 478.555 25.208 478.224 25.528C477.893 25.848 477.648 26.2107 477.488 26.616C477.328 27.0107 477.248 27.4267 477.248 27.864C477.248 28.376 477.339 28.824 477.52 29.208C477.701 29.5813 477.952 29.912 478.272 30.2C478.592 30.488 478.965 30.7387 479.392 30.952C479.819 31.1653 480.283 31.3573 480.784 31.528L481.28 24.312ZM482.544 32.088C483.312 32.3333 484.069 32.5947 484.816 32.872C485.563 33.1493 486.235 33.5067 486.832 33.944C487.429 34.3813 487.909 34.9307 488.272 35.592C488.645 36.2427 488.832 37.0587 488.832 38.04C488.832 39 488.672 39.9013 488.352 40.744C488.032 41.5867 487.563 42.328 486.944 42.968C486.336 43.608 485.584 44.1307 484.688 44.536C483.803 44.9307 482.789 45.1653 481.648 45.24L481.456 48.04C481.445 48.2427 481.365 48.4187 481.216 48.568C481.067 48.728 480.88 48.808 480.656 48.808H479.6L479.84 45.208C478.549 45.08 477.371 44.76 476.304 44.248C475.248 43.7253 474.336 43.064 473.568 42.264L474.432 40.952C474.517 40.8347 474.624 40.7387 474.752 40.664C474.88 40.5893 475.019 40.552 475.168 40.552C475.371 40.552 475.6 40.6533 475.856 40.856C476.112 41.0587 476.427 41.288 476.8 41.544C477.184 41.8 477.632 42.0507 478.144 42.296C478.667 42.5413 479.291 42.7067 480.016 42.792L480.592 34.296C479.845 34.072 479.109 33.8213 478.384 33.544C477.669 33.2667 477.024 32.8987 476.448 32.44C475.883 31.9813 475.424 31.4107 475.072 30.728C474.731 30.0453 474.56 29.1867 474.56 28.152C474.56 27.3733 474.709 26.616 475.008 25.88C475.317 25.1333 475.765 24.472 476.352 23.896C476.939 23.32 477.659 22.8507 478.512 22.488C479.365 22.1147 480.341 21.9067 481.44 21.864L481.6 19.56C481.611 19.3573 481.685 19.176 481.824 19.016C481.973 18.856 482.165 18.776 482.4 18.776H483.456L483.248 21.928C484.357 22.0667 485.317 22.3547 486.128 22.792C486.949 23.2293 487.675 23.7627 488.304 24.392L487.616 25.448C487.403 25.768 487.157 25.928 486.88 25.928C486.731 25.928 486.544 25.864 486.32 25.736C486.107 25.5973 485.845 25.4373 485.536 25.256C485.237 25.0747 484.88 24.8987 484.464 24.728C484.059 24.5573 483.595 24.4293 483.072 24.344L482.544 32.088ZM500.371 42.808C501.075 42.744 501.693 42.5947 502.227 42.36C502.76 42.1147 503.208 41.8053 503.571 41.432C503.944 41.0587 504.221 40.6267 504.403 40.136C504.595 39.6347 504.691 39.0853 504.691 38.488C504.691 37.9547 504.589 37.496 504.387 37.112C504.195 36.728 503.928 36.3973 503.587 36.12C503.245 35.832 502.845 35.592 502.387 35.4C501.928 35.1973 501.437 35.0107 500.915 34.84L500.371 42.808ZM499.843 24.312C499.149 24.376 498.547 24.5147 498.035 24.728C497.533 24.9413 497.117 25.208 496.787 25.528C496.456 25.848 496.211 26.2107 496.051 26.616C495.891 27.0107 495.811 27.4267 495.811 27.864C495.811 28.376 495.901 28.824 496.083 29.208C496.264 29.5813 496.515 29.912 496.835 30.2C497.155 30.488 497.528 30.7387 497.955 30.952C498.381 31.1653 498.845 31.3573 499.347 31.528L499.843 24.312ZM501.107 32.088C501.875 32.3333 502.632 32.5947 503.379 32.872C504.125 33.1493 504.797 33.5067 505.395 33.944C505.992 34.3813 506.472 34.9307 506.835 35.592C507.208 36.2427 507.395 37.0587 507.395 38.04C507.395 39 507.235 39.9013 506.915 40.744C506.595 41.5867 506.125 42.328 505.507 42.968C504.899 43.608 504.147 44.1307 503.251 44.536C502.365 44.9307 501.352 45.1653 500.211 45.24L500.019 48.04C500.008 48.2427 499.928 48.4187 499.779 48.568C499.629 48.728 499.443 48.808 499.219 48.808H498.163L498.403 45.208C497.112 45.08 495.933 44.76 494.867 44.248C493.811 43.7253 492.899 43.064 492.131 42.264L492.995 40.952C493.08 40.8347 493.187 40.7387 493.315 40.664C493.443 40.5893 493.581 40.552 493.731 40.552C493.933 40.552 494.163 40.6533 494.419 40.856C494.675 41.0587 494.989 41.288 495.363 41.544C495.747 41.8 496.195 42.0507 496.707 42.296C497.229 42.5413 497.853 42.7067 498.579 42.792L499.155 34.296C498.408 34.072 497.672 33.8213 496.947 33.544C496.232 33.2667 495.587 32.8987 495.011 32.44C494.445 31.9813 493.987 31.4107 493.635 30.728C493.293 30.0453 493.123 29.1867 493.123 28.152C493.123 27.3733 493.272 26.616 493.571 25.88C493.88 25.1333 494.328 24.472 494.915 23.896C495.501 23.32 496.221 22.8507 497.075 22.488C497.928 22.1147 498.904 21.9067 500.003 21.864L500.163 19.56C500.173 19.3573 500.248 19.176 500.387 19.016C500.536 18.856 500.728 18.776 500.963 18.776H502.019L501.811 21.928C502.92 22.0667 503.88 22.3547 504.691 22.792C505.512 23.2293 506.237 23.7627 506.867 24.392L506.179 25.448C505.965 25.768 505.72 25.928 505.443 25.928C505.293 25.928 505.107 25.864 504.883 25.736C504.669 25.5973 504.408 25.4373 504.099 25.256C503.8 25.0747 503.443 24.8987 503.027 24.728C502.621 24.5573 502.157 24.4293 501.635 24.344L501.107 32.088Z" fill="#15749D"/>
<path d="M456 34.2H463.904V36.616H456V34.2Z" fill="#15749D"/>
<defs>
<filter id="filter0_d_735_4738" x="110.182" y="75" width="829" height="556" filterUnits="userSpaceOnUse" color-interpolation-filters="sRGB">
<feFlood flood-opacity="0" result="BackgroundImageFix"/>
<feColorMatrix in="SourceAlpha" type="matrix" values="0 0 0 0 0 0 0 0 0 0 0 0 0 0 0 0 0 0 127 0" result="hardAlpha"/>
<feMorphology radius="10" operator="dilate" in="SourceAlpha" result="effect1_dropShadow_735_4738"/>
<feOffset dy="4"/>
<feGaussianBlur stdDeviation="15"/>
<feComposite in2="hardAlpha" operator="out"/>
<feColorMatrix type="matrix" values="0 0 0 0 0 0 0 0 0 0 0 0 0 0 0 0 0 0 0.15 0"/>
<feBlend mode="normal" in2="BackgroundImageFix" result="effect1_dropShadow_735_4738"/>
<feBlend mode="normal" in="SourceGraphic" in2="effect1_dropShadow_735_4738" result="shape"/>
</filter>
<linearGradient id="paint0_linear_735_4738" x1="530.995" y1="261.639" x2="506.14" y2="445.007" gradientUnits="userSpaceOnUse">
<stop offset="0.435417" stop-color="#FFA300"/>
<stop offset="1" stop-color="white" stop-opacity="0"/>
</linearGradient>
<linearGradient id="paint1_linear_735_4738" x1="571.749" y1="303.337" x2="504.408" y2="544.967" gradientUnits="userSpaceOnUse">
<stop stop-color="#FAE7C5"/>
<stop offset="1" stop-color="#C4C4C4" stop-opacity="0"/>
</linearGradient>
</defs>
</svg>
